<?xml version="1.0" encoding="utf-8"?>
<!-- Svg Vector Icons : http://www.sfont.cn -->
<!DOCTYPE svg PUBLIC "-//W3C//DTD SVG 1.1//EN" "http://www.w3.org/Graphics/SVG/1.1/DTD/svg11.dtd">
<svg version="1.1" xmlns="http://www.w3.org/2000/svg" xmlns:xlink="http://www.w3.org/1999/xlink" x="0px" y="0px" viewBox="0 0 1000 1000" enable-background="new 0 0 1000 1000" xml:space="preserve">
<metadata> Svg Vector Icons : http://www.sfont.cn </metadata>
<g><path d="M715.2,880.5c0,34.1-27.7,61.8-61.8,61.8s-61.8-27.7-61.8-61.8c0-34.1,61.8-126.3,61.8-126.3S715.2,846.3,715.2,880.5z"/><path d="M899.1,805.2c0,34.1-27.7,61.8-61.8,61.8s-61.8-27.7-61.8-61.8c0-34.1,61.8-126.3,61.8-126.3S899.1,771.1,899.1,805.2z"/><path d="M313.5,880.5c0,34.1-27.7,61.8-61.8,61.8s-61.8-27.7-61.8-61.8c0-34.1,61.8-126.3,61.8-126.3S313.5,846.3,313.5,880.5z"/><path d="M133.7,805.2c0,34.1-27.7,61.8-61.8,61.8C37.7,867,10,839.3,10,805.2C10,771.1,71.8,679,71.8,679S133.7,771.1,133.7,805.2z"/><path d="M987.3,379.1c-1.7-11.6-4.7-22.7-8-33.8c-5.9-20.4-14.5-39.4-25.3-57.2c-41.9-69-116.7-115.9-202.9-117.1c-10.5-17.8-22.9-33.9-36.3-49c-13.5-15.2-28.4-28.7-44.4-41c-25-19.3-52.4-35.5-82-46.9c-18.7-7.1-38.3-12.4-58.3-15.9c-18.4-3.3-36.9-5.6-55.9-5.6c-153.4,0-283.5,106.4-314.6,255C80.5,293.8,23.2,368.5,23.2,456.4c0,109.8,89.4,199.1,199.1,199.1c39.6,0,77.3-11.4,109.9-33.1c14.1,6.9,28.7,12.4,43.6,17.2l49.8-56.5c-26.9-5.3-53-14.3-76.8-27.8c-9.5-5.5-20.6-5.6-29.9-1.5c-5.3,0.9-10.6,2.9-15.2,6.5c-23.4,18.3-51.4,28-81.2,28c-72.7,0-131.9-59.2-131.9-131.9c0-72.7,59.2-131.9,131.9-131.9c36.7,0,72.1,15.5,97,42.4c12.6,13.6,33.8,14.4,47.5,1.9c13.6-12.6,14.5-33.8,1.9-47.5c-35.4-38.4-84.8-61.3-136.8-63.8C264.5,152.7,361.3,79.7,474.2,79.7c7.1,0,14.3,0.7,21.4,1.3c18.9,1.6,37.3,5.3,55.1,11c34.4,10.9,65.9,29.3,92.7,53.3c12.3,11,24.1,22.8,34.1,36.3c-6,1.8-11.9,4.1-17.8,6.3c-7.4,2.9-14.2,7-21.3,10.5c-5.9,3-12,5.3-17.7,8.8c-10.6,6.5-20.9,13.5-30.5,21.7c-14.1,12-15.8,33.2-3.8,47.4c12,14.1,33.2,15.8,47.4,3.8c5.8-5,12.2-9.1,18.6-13.2c16.6-10.8,34.9-18.5,54.1-23.2c13.4-3.2,27-5.5,40.9-5.5c65.3,0,121.9,36.2,151.9,89.3c8.3,14.7,15,30.5,18.8,47.5c0.5,2.5,0.5,5.2,0.9,7.7c1.8,10,3.5,20.1,3.5,30.6c0,6.3-0.4,12.5-1,18.6c-9.3,87.9-83.9,156.5-174.1,156.5c-39.1,0-76.1-12.6-107-36.5c-14.7-11.4-35.7-8.7-47.1,6.1c-0.2,0.2-0.3,0.5-0.5,0.8c-8.1,4.3-17.2,6.4-25.7,9.8L535.8,649c29.7-5.9,58.6-15.3,85.5-29.2c38,23.4,81.2,35.7,126.4,35.7c126.5,0,230.5-97.6,241.2-221.4c0.6-6.9,1.1-13.9,1.1-21C990,401.6,988.9,390.3,987.3,379.1L987.3,379.1z"/><path d="M524.3,568.5c2.4-6.2,0.8-7.1-3.5-2.2l-177,200.9c-4.4,5-2.7,10.5,3.6,12.3l71.8,20.1c6.3,1.8,9.7,8.3,7.5,14.5l-59.9,168c-2.3,6.2-0.5,7.3,4,2.4l194.7-213.2c4.4-4.9,2.9-10.4-3.4-12.3l-89.4-27c-6.3-1.9-9.5-8.5-7.1-14.6L524.3,568.5L524.3,568.5z"/></g>
</svg>